<svg fill="none" xmlns="http://www.w3.org/2000/svg" viewBox="0 0 386 253"><g opacity=".5" clip-path="url(#a)"><path opacity=".5" d="M173 77.3H56.2v116.5H173V77.3Z" stroke="url(#b)"/><path opacity=".1" d="M173 77.3H56.2v116.5H173V77.3Z" fill="url(#c)"/><path opacity=".5" d="M172.7 77.3 229.2 18v116.6l-56.5 59.2V77.3Z" stroke="url(#d)"/><path opacity=".1" d="M172.7 77.3 229.2 18v116.6l-56.5 59.2V77.3Z" fill="url(#e)"/><path opacity=".5" d="m0 136.6 56.3-59.3v116.5L0 253.1V136.6Z" stroke="url(#f)"/><path opacity=".1" d="m0 136.6 56.3-59.3v116.5L0 253.1V136.6Z" fill="url(#g)"/><path opacity=".5" d="M348.2 18.3H228.9v116.4h119.3V18.3Z" stroke="url(#h)"/><path opacity=".1" d="M348.2 18.3H228.9v116.4h119.3V18.3Z" fill="url(#i)"/><path opacity=".5" d="M348 18.3 405-31V77.1l-57 57.6V18.3Z" stroke="url(#j)"/><path opacity=".1" d="M348 18.3 405-31V77.1l-57 57.6V18.3Z" fill="url(#k)"/></g><defs><linearGradient id="b" x1="49.1" y1="79.3" x2="148.9" y2="98.9" gradientUnits="userSpaceOnUse"><stop stop-color="#4A6CF7" stop-opacity="0"/><stop offset="1" stop-color="#4A6CF7"/></linearGradient><linearGradient id="c" x1="179.1" y1="176.1" x2="32.6" y2="112.5" gradientUnits="userSpaceOnUse"><stop stop-color="#4A6CF7"/><stop offset="1" stop-color="#4A6CF7" stop-opacity="0"/></linearGradient><linearGradient id="d" x1="170" y1="92.3" x2="217.5" y2="92.5" gradientUnits="userSpaceOnUse"><stop stop-color="#4A6CF7" stop-opacity="0"/><stop offset="1" stop-color="#4A6CF7"/></linearGradient><linearGradient id="e" x1="233.6" y1="80.2" x2="146.5" y2="111" gradientUnits="userSpaceOnUse"><stop stop-color="#4A6CF7"/><stop offset="1" stop-color="#4A6CF7" stop-opacity="0"/></linearGradient><linearGradient id="f" x1="-3.5" y1="80.3" x2="46.3" y2="83.4" gradientUnits="userSpaceOnUse"><stop stop-color="#4A6CF7" stop-opacity="0"/><stop offset="1" stop-color="#4A6CF7"/></linearGradient><linearGradient id="g" x1="69.9" y1="156.2" x2="84" y2="216.9" gradientUnits="userSpaceOnUse"><stop stop-color="#4A6CF7"/><stop offset="1" stop-color="#4A6CF7" stop-opacity="0"/></linearGradient><linearGradient id="h" x1="219" y1="124.5" x2="330.3" y2="115.4" gradientUnits="userSpaceOnUse"><stop stop-color="#4A6CF7" stop-opacity="0"/><stop offset="1" stop-color="#4A6CF7"/></linearGradient><linearGradient id="i" x1="348.2" y1="13.6" x2="280.1" y2="135.6" gradientUnits="userSpaceOnUse"><stop stop-color="#4A6CF7"/><stop offset="1" stop-color="#4A6CF7" stop-opacity="0"/></linearGradient><linearGradient id="j" x1="329" y1="157" x2="369.5" y2="-62.9" gradientUnits="userSpaceOnUse"><stop stop-color="#4A6CF7" stop-opacity="0"/><stop offset="1" stop-color="#4A6CF7"/></linearGradient><linearGradient id="k" x1="409" y1="-23" x2="331.7" y2="1.3" gradientUnits="userSpaceOnUse"><stop stop-color="#4A6CF7"/><stop offset="1" stop-color="#4A6CF7" stop-opacity="0"/></linearGradient><clipPath id="a"><path fill="#fff" transform="translate(0 -33)" d="M0 0h406v286H0z"/></clipPath></defs></svg>